<mxfile host="app.diagrams.net" modified="2023-07-18T02:03:06.608Z" agent="Mozilla/5.0 (Windows NT 10.0; Win64; x64; rv:109.0) Gecko/20100101 Firefox/115.0" etag="8dwRdcPCyLD_udTX8DVl" version="21.6.2" type="github">
  <diagram name="Page-1" id="bfe91b75-5d2c-26a0-9c1d-138518896778">
    <mxGraphModel dx="1405" dy="885" grid="1" gridSize="10" guides="1" tooltips="1" connect="1" arrows="1" fold="1" page="1" pageScale="1" pageWidth="1100" pageHeight="850" background="none" math="0" shadow="0">
      <root>
        <mxCell id="0" />
        <mxCell id="1" parent="0" />
        <mxCell id="xPAk64RFmd2ETKGunmVE-1" value="" style="html=1;fillColor=#CCCCCC;strokeColor=#6881B3;gradientColor=none;gradientDirection=north;strokeWidth=2;shape=mxgraph.networks.bus;gradientColor=none;gradientDirection=north;fontColor=#ffffff;perimeter=backbonePerimeter;backboneSize=20;" vertex="1" parent="1">
          <mxGeometry x="170" y="360" width="720" height="30" as="geometry" />
        </mxCell>
        <mxCell id="xPAk64RFmd2ETKGunmVE-10" value="" style="fontColor=#0066CC;verticalAlign=top;verticalLabelPosition=bottom;labelPosition=center;align=center;html=1;outlineConnect=0;fillColor=#CCCCCC;strokeColor=#6881B3;gradientColor=none;gradientDirection=north;strokeWidth=2;shape=mxgraph.networks.pc;" vertex="1" parent="1">
          <mxGeometry x="450" y="640" width="100" height="70" as="geometry" />
        </mxCell>
        <mxCell id="xPAk64RFmd2ETKGunmVE-11" value="&lt;div style=&quot;font-size: 16px;&quot;&gt;&lt;font style=&quot;font-size: 16px;&quot;&gt;ARFaceManager&lt;/font&gt;&lt;/div&gt;&lt;div style=&quot;font-size: 16px;&quot;&gt;&lt;font style=&quot;font-size: 16px;&quot;&gt;&lt;br&gt;&lt;/font&gt;&lt;/div&gt;" style="text;html=1;align=center;verticalAlign=middle;resizable=0;points=[];autosize=1;strokeColor=none;fillColor=none;" vertex="1" parent="1">
          <mxGeometry x="605" y="690" width="140" height="50" as="geometry" />
        </mxCell>
        <mxCell id="xPAk64RFmd2ETKGunmVE-12" value="&lt;div style=&quot;font-size: 13px;&quot;&gt;&lt;font style=&quot;font-size: 16px;&quot;&gt;WLAN&lt;/font&gt;&lt;/div&gt;" style="text;html=1;align=center;verticalAlign=middle;resizable=0;points=[];autosize=1;strokeColor=none;fillColor=none;" vertex="1" parent="1">
          <mxGeometry x="890" y="360" width="70" height="30" as="geometry" />
        </mxCell>
        <mxCell id="xPAk64RFmd2ETKGunmVE-14" value="" style="endArrow=none;dashed=1;html=1;rounded=0;" edge="1" parent="1">
          <mxGeometry width="50" height="50" relative="1" as="geometry">
            <mxPoint x="220" y="484.41" as="sourcePoint" />
            <mxPoint x="780" y="484.41" as="targetPoint" />
            <Array as="points" />
          </mxGeometry>
        </mxCell>
        <mxCell id="xPAk64RFmd2ETKGunmVE-15" value="" style="endArrow=none;dashed=1;html=1;rounded=0;" edge="1" parent="1">
          <mxGeometry width="50" height="50" relative="1" as="geometry">
            <mxPoint x="220" y="710" as="sourcePoint" />
            <mxPoint x="220" y="480" as="targetPoint" />
          </mxGeometry>
        </mxCell>
        <mxCell id="xPAk64RFmd2ETKGunmVE-16" value="" style="endArrow=none;dashed=1;html=1;rounded=0;" edge="1" parent="1">
          <mxGeometry width="50" height="50" relative="1" as="geometry">
            <mxPoint x="220" y="720" as="sourcePoint" />
            <mxPoint x="220" y="480" as="targetPoint" />
          </mxGeometry>
        </mxCell>
        <mxCell id="xPAk64RFmd2ETKGunmVE-17" value="" style="endArrow=none;dashed=1;html=1;rounded=0;" edge="1" parent="1">
          <mxGeometry width="50" height="50" relative="1" as="geometry">
            <mxPoint x="220" y="720" as="sourcePoint" />
            <mxPoint x="780" y="720" as="targetPoint" />
          </mxGeometry>
        </mxCell>
        <mxCell id="xPAk64RFmd2ETKGunmVE-18" value="" style="endArrow=none;dashed=1;html=1;rounded=0;" edge="1" parent="1">
          <mxGeometry width="50" height="50" relative="1" as="geometry">
            <mxPoint x="780" y="720" as="sourcePoint" />
            <mxPoint x="780" y="480" as="targetPoint" />
          </mxGeometry>
        </mxCell>
        <mxCell id="xPAk64RFmd2ETKGunmVE-19" value="&lt;div style=&quot;font-size: 13px;&quot;&gt;&lt;font style=&quot;font-size: 16px;&quot;&gt;PC&lt;/font&gt;&lt;/div&gt;" style="text;html=1;align=center;verticalAlign=middle;resizable=0;points=[];autosize=1;strokeColor=none;fillColor=none;" vertex="1" parent="1">
          <mxGeometry x="390" y="670" width="50" height="30" as="geometry" />
        </mxCell>
        <mxCell id="xPAk64RFmd2ETKGunmVE-20" value="" style="endArrow=none;dashed=1;html=1;rounded=0;" edge="1" parent="1">
          <mxGeometry width="50" height="50" relative="1" as="geometry">
            <mxPoint x="160" y="200" as="sourcePoint" />
            <mxPoint x="160" y="60" as="targetPoint" />
          </mxGeometry>
        </mxCell>
        <mxCell id="xPAk64RFmd2ETKGunmVE-24" value="" style="shape=flexArrow;endArrow=classic;startArrow=classic;html=1;rounded=0;" edge="1" parent="1" source="xPAk64RFmd2ETKGunmVE-1">
          <mxGeometry width="100" height="100" relative="1" as="geometry">
            <mxPoint x="220" y="330" as="sourcePoint" />
            <mxPoint x="220" y="200" as="targetPoint" />
          </mxGeometry>
        </mxCell>
        <mxCell id="xPAk64RFmd2ETKGunmVE-32" value="&lt;div&gt;设备搜索与管理&lt;/div&gt;" style="whiteSpace=wrap;html=1;align=center;verticalAlign=middle;treeFolding=1;treeMoving=1;newEdgeStyle={&quot;edgeStyle&quot;:&quot;elbowEdgeStyle&quot;,&quot;startArrow&quot;:&quot;none&quot;,&quot;endArrow&quot;:&quot;none&quot;};flipH=1;" vertex="1" parent="1">
          <mxGeometry x="240" y="510" width="120" height="100" as="geometry" />
        </mxCell>
        <mxCell id="xPAk64RFmd2ETKGunmVE-48" value="" style="endArrow=classic;startArrow=classic;html=1;rounded=0;" edge="1" parent="1">
          <mxGeometry width="50" height="50" relative="1" as="geometry">
            <mxPoint x="300" y="510" as="sourcePoint" />
            <mxPoint x="300" y="383.6470588235293" as="targetPoint" />
          </mxGeometry>
        </mxCell>
        <mxCell id="xPAk64RFmd2ETKGunmVE-49" value="UDP/TCP" style="edgeLabel;html=1;align=center;verticalAlign=middle;resizable=0;points=[];fontSize=13;" vertex="1" connectable="0" parent="xPAk64RFmd2ETKGunmVE-48">
          <mxGeometry x="0.243" y="-2" relative="1" as="geometry">
            <mxPoint x="28" y="9" as="offset" />
          </mxGeometry>
        </mxCell>
        <mxCell id="xPAk64RFmd2ETKGunmVE-50" value="&lt;div&gt;人员数据管理与同步&lt;/div&gt;" style="whiteSpace=wrap;html=1;align=center;verticalAlign=middle;treeFolding=1;treeMoving=1;newEdgeStyle={&quot;edgeStyle&quot;:&quot;elbowEdgeStyle&quot;,&quot;startArrow&quot;:&quot;none&quot;,&quot;endArrow&quot;:&quot;none&quot;};flipH=1;" vertex="1" parent="1">
          <mxGeometry x="370" y="510" width="120" height="100" as="geometry" />
        </mxCell>
        <mxCell id="xPAk64RFmd2ETKGunmVE-51" value="&lt;div&gt;数据查询&lt;/div&gt;&lt;div&gt;&lt;br&gt;&lt;/div&gt;" style="whiteSpace=wrap;html=1;align=center;verticalAlign=middle;treeFolding=1;treeMoving=1;newEdgeStyle={&quot;edgeStyle&quot;:&quot;elbowEdgeStyle&quot;,&quot;startArrow&quot;:&quot;none&quot;,&quot;endArrow&quot;:&quot;none&quot;};flipH=1;" vertex="1" parent="1">
          <mxGeometry x="640" y="510" width="120" height="100" as="geometry" />
        </mxCell>
        <mxCell id="xPAk64RFmd2ETKGunmVE-52" value="&lt;div&gt;视频预览&lt;/div&gt;" style="whiteSpace=wrap;html=1;align=center;verticalAlign=middle;treeFolding=1;treeMoving=1;newEdgeStyle={&quot;edgeStyle&quot;:&quot;elbowEdgeStyle&quot;,&quot;startArrow&quot;:&quot;none&quot;,&quot;endArrow&quot;:&quot;none&quot;};flipH=1;" vertex="1" parent="1">
          <mxGeometry x="500" y="510" width="120" height="100" as="geometry" />
        </mxCell>
      </root>
    </mxGraphModel>
  </diagram>
</mxfile>
